<?xml version="1.0" encoding="UTF-8" standalone="no"?>
<svg
   xmlns:dc="http://purl.org/dc/elements/1.1/"
   xmlns:cc="http://creativecommons.org/ns#"
   xmlns:rdf="http://www.w3.org/1999/02/22-rdf-syntax-ns#"
   xmlns:svg="http://www.w3.org/2000/svg"
   xmlns="http://www.w3.org/2000/svg"
   xmlns:sodipodi="http://sodipodi.sourceforge.net/DTD/sodipodi-0.dtd"
   xmlns:inkscape="http://www.inkscape.org/namespaces/inkscape"
   viewBox="0.0 0.0 348.0 348.0"
   fill="none"
   version="1.1"
   id="svg256"
   sodipodi:docname="TribalCouncil.svg"
   inkscape:version="1.0.1 (c497b03c, 2020-09-10)">
  <metadata
     id="metadata262">
    <rdf:RDF>
      <cc:Work
         rdf:about="">
        <dc:format>image/svg+xml</dc:format>
        <dc:type
           rdf:resource="http://purl.org/dc/dcmitype/StillImage" />
        <dc:title></dc:title>
      </cc:Work>
    </rdf:RDF>
  </metadata>
  <defs
     id="defs260" />
  <sodipodi:namedview
     pagecolor="#ffffff"
     bordercolor="#666666"
     borderopacity="1"
     objecttolerance="10"
     gridtolerance="10"
     guidetolerance="10"
     inkscape:pageopacity="0"
     inkscape:pageshadow="2"
     inkscape:window-width="1698"
     inkscape:window-height="850"
     id="namedview258"
     showgrid="false"
     inkscape:snap-global="false"
     inkscape:zoom="2.4407481"
     inkscape:cx="159.70511"
     inkscape:cy="229.42628"
     inkscape:window-x="180"
     inkscape:window-y="173"
     inkscape:window-maximized="0"
     inkscape:current-layer="svg256" />
  <path
     d="M5.079 5.776h336.913v337.67H5.08z"
     stroke-width="2"
     stroke="#000"
     id="path252" />
  <path
     d="M282.734 40.554c0-8.376 6.966-15.165 15.56-15.165 4.126 0 8.084 1.597 11.001 4.441 2.918 2.844 4.558 6.702 4.558 10.724 0 8.376-6.966 15.165-15.56 15.165-8.593 0-15.559-6.79-15.559-15.165z"
     stroke-width="2"
     stroke="#000"
     id="path254" />
  <rect
     style="font-variation-settings:normal;opacity:1;vector-effect:none;fill:#ececec;fill-opacity:0;stroke:#000000;stroke-width:2;stroke-linecap:butt;stroke-linejoin:miter;stroke-miterlimit:4;stroke-dasharray:none;stroke-dashoffset:0;stroke-opacity:1;stop-color:#000000;stop-opacity:1"
     id="rect264"
     width="93.155136"
     height="22.347504"
     x="129.34712"
     y="61.813702" />
  <rect
     style="font-variation-settings:normal;opacity:1;vector-effect:none;fill:#ececec;fill-opacity:0;stroke:#000000;stroke-width:2;stroke-linecap:butt;stroke-linejoin:miter;stroke-miterlimit:4;stroke-dasharray:none;stroke-dashoffset:0;stroke-opacity:1;stop-color:#000000;stop-opacity:1"
     id="rect264-0"
     width="93.155136"
     height="22.347504"
     x="129.34677"
     y="280.67477" />
  <rect
     style="font-variation-settings:normal;opacity:1;vector-effect:none;fill:#ececec;fill-opacity:0;stroke:#000000;stroke-width:2;stroke-linecap:butt;stroke-linejoin:miter;stroke-miterlimit:4;stroke-dasharray:none;stroke-dashoffset:0;stroke-opacity:1;stop-color:#000000;stop-opacity:1"
     id="rect264-5"
     width="93.155136"
     height="22.347504"
     x="236.94206"
     y="104.41315" />
  <rect
     style="font-variation-settings:normal;opacity:1;vector-effect:none;fill:#ececec;fill-opacity:0;stroke:#000000;stroke-width:2;stroke-linecap:butt;stroke-linejoin:miter;stroke-miterlimit:4;stroke-dasharray:none;stroke-dashoffset:0;stroke-opacity:1;stop-color:#000000;stop-opacity:1"
     id="rect264-5-6"
     width="93.155136"
     height="22.347504"
     x="18.942001"
     y="104.413" />
  <rect
     style="font-variation-settings:normal;opacity:1;vector-effect:none;fill:#ececec;fill-opacity:0;stroke:#000000;stroke-width:2;stroke-linecap:butt;stroke-linejoin:miter;stroke-miterlimit:4;stroke-dasharray:none;stroke-dashoffset:0;stroke-opacity:1;stop-color:#000000;stop-opacity:1"
     id="rect264-5-8"
     width="93.155136"
     height="22.347504"
     x="236.94206"
     y="241.98222" />
  <rect
     style="font-variation-settings:normal;opacity:1;vector-effect:none;fill:#ececec;fill-opacity:0;stroke:#000000;stroke-width:2;stroke-linecap:butt;stroke-linejoin:miter;stroke-miterlimit:4;stroke-dasharray:none;stroke-dashoffset:0;stroke-opacity:1;stop-color:#000000;stop-opacity:1"
     id="rect264-5-6-7"
     width="93.155136"
     height="22.347504"
     x="18.941999"
     y="241.98207" />
  <path
     style="fill:none;stroke:#000000;stroke-width:1.55;stroke-linecap:butt;stroke-linejoin:miter;stroke-miterlimit:4;stroke-dasharray:none;stroke-opacity:1"
     d="m 64.32404,162.29142 16.788203,-2.86748 c 0,0 -1.259115,4.91568 2.937935,2.04819 4.197052,-2.86748 13.010858,-3.27711 21.404962,-5.32532 8.3941,-2.04821 7.55469,1.63857 13.01085,-1.63856 5.45616,-3.27712 16.36851,-1.63856 22.24437,-2.04821 5.87587,-0.40964 9.65322,-3.68676 15.10939,-2.0482 5.45617,1.63856 0.4197,-0.40963 17.20791,-4.09641 16.7882,-3.68676 22.24437,2.86749 25.60202,0.40965 3.35763,-2.45785 22.24435,-7.37353 26.86111,-5.73497 4.61676,1.63856 3.77735,-2.86749 23.92319,-4.09641 20.14584,-1.22892 -2.93793,0.81927 21.40496,-3.68677"
     id="path1361" />
  <path
     style="fill:none;stroke:#000000;stroke-width:1.55;stroke-linecap:butt;stroke-linejoin:miter;stroke-miterlimit:4;stroke-dasharray:none;stroke-opacity:1"
     d="m 270.3314,133.63277 c 0,0 3.22733,2.83326 4.14942,14.5711 0.9221,11.73785 4.14944,16.99963 4.61048,21.45192 0.46105,4.45228 0,18.61864 3.68839,19.42814 3.68839,0.80951 -5.07153,5.26179 1.8442,14.57111"
     id="path1363" />
  <path
     style="fill:none;stroke:#000000;stroke-width:1.55;stroke-linecap:butt;stroke-linejoin:miter;stroke-miterlimit:4;stroke-dasharray:none;stroke-opacity:1"
     d="m 64.734251,161.47447 c 0,0 -0.40971,6.96508 1.638842,10.24276 2.048552,3.27768 5.735946,7.7845 5.326236,15.15929 -0.40971,7.37479 -6.145657,-2.04855 0,14.33986 6.145657,16.38842 1.229131,12.70103 2.048552,18.02726 0.819421,5.32624 1.229132,5.32624 3.277684,13.52045"
     id="path1367" />
  <path
     style="fill:none;stroke:#000000;stroke-width:1.55;stroke-linecap:butt;stroke-linejoin:miter;stroke-miterlimit:4;stroke-dasharray:none;stroke-opacity:1"
     d="m 76.615854,231.94467 c 0,0 2.867974,4.91652 21.304944,-2.86798 18.436972,-7.78449 1.638842,4.50682 36.873942,-2.86797 35.2351,-7.37479 11.8816,-3.27768 43.0196,-5.73594 31.13799,-2.45827 9.42334,-0.81943 33.18654,-6.55537 23.76321,-5.73595 2.45827,-0.81942 28.67973,-2.86798 26.22147,-2.04855 20.89524,-1.63884 31.138,-5.32623 10.24276,-3.6874 13.52044,-2.04855 13.52044,-2.45826"
     id="path1369" />
</svg>
